<svg width="377" height="315" viewBox="0 0 377 315" fill="none" xmlns="http://www.w3.org/2000/svg">
<rect x="79.876" width="147.881" height="308" rx="4.07947" fill="#E4EBFF"/>
<path fill-rule="evenodd" clip-rule="evenodd" d="M88.0353 7.13916C86.9088 7.13916 85.9956 8.05237 85.9956 9.17889V298.821C85.9956 299.948 86.9088 300.861 88.0353 300.861H219.088C220.215 300.861 221.128 299.948 221.128 298.821V9.1789C221.128 8.05238 220.215 7.13916 219.088 7.13916H88.0353ZM96.1951 22.4371C99.0114 22.4371 101.294 20.1541 101.294 17.3378C101.294 14.5215 99.0114 12.2385 96.1951 12.2385C93.3789 12.2385 91.0958 14.5215 91.0958 17.3378C91.0958 20.1541 93.3789 22.4371 96.1951 22.4371Z" fill="white"/>
<rect y="23.7876" width="332.726" height="194.505" rx="4" fill="url(#paint0_linear)"/>
<circle cx="164.361" cy="110.929" r="20.3927" stroke="white" stroke-width="0.351598"/>
<path opacity="0.75" fill-rule="evenodd" clip-rule="evenodd" d="M165.2 105.873L169.093 109.765C169.42 110.092 169.949 110.092 170.275 109.765C170.602 109.439 170.602 108.91 170.275 108.583L164.955 103.263C164.629 102.937 164.1 102.937 163.773 103.263L158.453 108.583C158.127 108.91 158.127 109.439 158.453 109.765C158.779 110.092 159.309 110.092 159.635 109.765L163.528 105.873L163.528 117.642L165.2 117.642L165.2 105.873Z" fill="white"/>
<g style="mix-blend-mode:overlay">
<rect x="126.565" y="81.4498" width="75.9452" height="109.699" stroke="white" stroke-width="1.40639" stroke-dasharray="3.52 3.52"/>
</g>
<g filter="url(#filter0_bi)">
<rect x="116.719" y="71.6047" width="77.3516" height="111.105" fill="url(#paint1_radial)" fill-opacity="0.85"/>
<rect x="117.422" y="72.3079" width="75.9452" height="109.699" stroke="url(#paint2_radial)" stroke-opacity="0.6" stroke-width="1.40639"/>
<rect x="117.422" y="72.3079" width="75.9452" height="109.699" stroke="url(#paint3_linear)" stroke-width="1.40639"/>
</g>
<ellipse cx="157.033" cy="110.469" rx="20.7754" ry="20.6475" transform="rotate(-15.7501 157.033 110.469)" fill="url(#paint4_linear)"/>
<ellipse cx="154.274" cy="110.117" rx="20.7754" ry="20.6475" transform="rotate(-15.7501 154.274 110.117)" fill="url(#paint5_linear)"/>
<path d="M163.212 109.799C162.67 109.112 161.856 108.643 160.769 108.393C162.145 107.682 162.744 106.489 162.565 104.813C162.505 104.205 162.332 103.679 162.046 103.234C161.76 102.789 161.376 102.432 160.892 102.164C160.408 101.895 159.882 101.692 159.316 101.553C158.75 101.414 158.1 101.315 157.367 101.256L157.343 97.7717L155.202 97.7869L155.226 101.174C154.855 101.177 154.29 101.19 153.53 101.214L153.506 97.799L151.364 97.8142L151.389 101.298C151.083 101.309 150.634 101.317 150.041 101.322L147.093 101.329L147.109 103.596L148.652 103.585C149.357 103.58 149.771 103.89 149.896 104.516L149.925 108.484C150.017 108.483 150.092 108.487 150.147 108.496L149.925 108.498L149.964 114.055C149.893 114.526 149.626 114.763 149.163 114.766L147.62 114.777L147.207 117.31L149.987 117.29C150.164 117.289 150.418 117.289 150.752 117.291C151.086 117.293 151.336 117.294 151.503 117.293L151.528 120.818L153.669 120.803L153.645 117.319C154.034 117.326 154.599 117.326 155.341 117.321L155.365 120.791L157.506 120.776L157.481 117.25C158.241 117.208 158.915 117.135 159.503 117.029C160.091 116.923 160.653 116.76 161.189 116.54C161.724 116.319 162.172 116.046 162.531 115.721C162.89 115.396 163.186 114.984 163.419 114.484C163.652 113.985 163.799 113.408 163.859 112.753C163.971 111.471 163.755 110.487 163.212 109.799ZM153.589 103.701C153.654 103.701 153.837 103.697 154.138 103.691C154.44 103.684 154.69 103.677 154.889 103.671C155.088 103.665 155.357 103.675 155.696 103.7C156.034 103.725 156.32 103.76 156.552 103.805C156.783 103.849 157.039 103.923 157.318 104.027C157.597 104.131 157.82 104.259 157.988 104.41C158.156 104.56 158.298 104.753 158.416 104.987C158.533 105.222 158.593 105.491 158.595 105.795C158.597 106.053 158.557 106.288 158.476 106.501C158.394 106.713 158.27 106.892 158.104 107.036C157.938 107.18 157.767 107.306 157.592 107.413C157.417 107.52 157.193 107.607 156.92 107.673C156.647 107.74 156.409 107.792 156.205 107.83C156.001 107.869 155.747 107.896 155.441 107.912C155.135 107.928 154.903 107.939 154.746 107.945C154.588 107.95 154.373 107.952 154.099 107.949C153.826 107.946 153.666 107.945 153.619 107.946L153.589 103.701L153.589 103.701L153.589 103.701ZM159.503 113.074C159.416 113.287 159.304 113.472 159.166 113.63C159.028 113.787 158.846 113.927 158.62 114.048C158.393 114.17 158.174 114.268 157.961 114.343C157.749 114.419 157.492 114.485 157.191 114.543C156.89 114.6 156.626 114.641 156.399 114.666C156.172 114.69 155.901 114.711 155.586 114.727C155.271 114.743 155.026 114.751 154.85 114.753C154.673 114.754 154.451 114.753 154.182 114.75C153.913 114.748 153.742 114.747 153.668 114.747L153.634 110.075C153.708 110.074 153.929 110.068 154.295 110.056C154.661 110.044 154.96 110.038 155.191 110.036C155.423 110.034 155.743 110.046 156.151 110.071C156.559 110.095 156.902 110.134 157.181 110.187C157.459 110.241 157.763 110.324 158.093 110.437C158.423 110.55 158.691 110.688 158.896 110.853C159.101 111.017 159.274 111.228 159.415 111.485C159.556 111.742 159.627 112.036 159.63 112.368C159.632 112.627 159.589 112.862 159.503 113.074Z" fill="white"/>
<rect opacity="0.2" x="26.0069" y="81.4498" width="75.9452" height="109.699" rx="0.703196" stroke="#3751A0" stroke-width="1.40639"/>
<g style="mix-blend-mode:overlay" opacity="0.4">
<rect x="33.7424" y="151.066" width="60.4749" height="2.81279" rx="1.40639" fill="white"/>
</g>
<g style="mix-blend-mode:overlay" opacity="0.4">
<rect x="33.7424" y="159.504" width="41.8402" height="2.81279" rx="1.40639" fill="white"/>
</g>
<g style="mix-blend-mode:overlay" opacity="0.4">
<circle cx="64.0192" cy="119.422" r="19.6895" fill="white" fill-opacity="0.16"/>
<circle cx="64.0192" cy="119.422" r="19.6895" stroke="white" stroke-width="1.40639"/>
</g>
<g style="mix-blend-mode:overlay">
<g opacity="0.35">
<path d="M63.9779 105.332L63.7537 105.949L63.7537 124.392L63.9779 124.617L72.583 119.543L63.9779 105.332Z" fill="white" fill-opacity="0.72"/>
<path d="M63.9782 105.333L55.373 119.544L63.9782 124.617V115.647V105.333Z" fill="white" fill-opacity="0.4"/>
<path d="M63.9806 126.186L63.8965 126.355V132.913L63.9806 133.222L72.5857 121.197L63.9806 126.186Z" fill="white" fill-opacity="0.8"/>
<path d="M63.9775 133.222V126.186L55.3723 121.197L63.9775 133.222Z" fill="white" fill-opacity="0.4"/>
<path d="M63.9775 124.617L72.5827 119.543L63.9775 115.647V124.617Z" fill="white"/>
<path d="M55.3723 119.543L63.9775 124.617V115.647L55.3723 119.543Z" fill="white" fill-opacity="0.8"/>
</g>
</g>
<g style="mix-blend-mode:overlay">
<g opacity="0.35">
<path d="M63.9779 105.332L63.7537 105.949L63.7537 124.392L63.9779 124.617L72.583 119.543L63.9779 105.332Z" fill="white" fill-opacity="0.72"/>
<path d="M63.9782 105.333L55.373 119.544L63.9782 124.617V115.647V105.333Z" fill="white" fill-opacity="0.4"/>
<path d="M63.9806 126.186L63.8965 126.355V132.913L63.9806 133.222L72.5857 121.197L63.9806 126.186Z" fill="white" fill-opacity="0.8"/>
<path d="M63.9775 133.222V126.186L55.3723 121.197L63.9775 133.222Z" fill="white" fill-opacity="0.4"/>
<path d="M63.9775 124.617L72.5827 119.543L63.9775 115.647V124.617Z" fill="white"/>
<path d="M55.3723 119.543L63.9775 124.617V115.647L55.3723 119.543Z" fill="white" fill-opacity="0.8"/>
</g>
</g>
<rect opacity="0.2" x="218.332" y="81.4498" width="75.9452" height="109.699" rx="0.703196" stroke="#3751A0" stroke-width="1.40639"/>
<g style="mix-blend-mode:overlay" opacity="0.4">
<rect x="226.066" y="151.066" width="60.4749" height="2.81279" rx="1.40639" fill="white"/>
</g>
<g style="mix-blend-mode:overlay" opacity="0.4">
<rect x="226.066" y="159.504" width="41.8402" height="2.81279" rx="1.40639" fill="white"/>
</g>
<g style="mix-blend-mode:overlay" opacity="0.4">
<circle cx="256.344" cy="119.422" r="19.6895" fill="white" fill-opacity="0.16"/>
<circle cx="256.344" cy="119.422" r="19.6895" stroke="white" stroke-width="1.40639"/>
</g>
<g style="mix-blend-mode:overlay" opacity="0.6">
<path d="M254.332 126.486L256.062 120.633L258.758 119.866L259.322 117.929L256.666 118.736L259.483 109.129V108.975C259.48 108.914 259.466 108.853 259.441 108.797C259.416 108.741 259.379 108.691 259.335 108.649C259.29 108.607 259.237 108.574 259.18 108.552C259.122 108.531 259.061 108.521 259 108.523H255.418C255.283 108.519 255.15 108.56 255.04 108.641C254.931 108.721 254.852 108.836 254.815 108.967L251.475 120.351L248.819 121.158L248.216 123.015L250.872 122.207L248.497 130.321H262.661C262.797 130.327 262.931 130.286 263.041 130.205C263.15 130.125 263.229 130.009 263.265 129.877L264.07 127.092V126.939C264.068 126.877 264.053 126.817 264.028 126.76C264.003 126.704 263.967 126.654 263.922 126.612C263.877 126.57 263.824 126.537 263.767 126.516C263.709 126.494 263.648 126.484 263.587 126.486H254.332Z" fill="white"/>
</g>
<path d="M141.888 141.87C141.888 139.338 136.966 133.197 134.504 130.443L127.121 136.947V149.429H136.087V145.21C136.555 145.444 137.739 145.913 138.724 145.913C139.954 145.913 141.888 145.034 141.888 141.87Z" fill="url(#paint6_linear)"/>
<path d="M135.826 139.763L139.518 136.95C140.221 137.888 141.768 140.044 142.331 141.169C143.034 142.576 142.331 145.037 140.045 145.916C138.217 146.619 136.822 145.623 136.354 145.037C135.064 143.279 132.345 139.552 131.783 138.708C131.08 137.653 130.728 137.302 130.376 138.708C130.095 139.833 131.314 140.232 131.959 140.29C131.959 141.697 131.361 144.65 128.97 145.213C125.981 145.916 124.399 141.521 124.223 137.653C124.048 133.786 129.849 129.566 131.255 128.16C132.662 126.754 135.299 125.875 135.826 129.391C136.354 132.907 133.892 134.84 133.365 135.544C132.943 136.106 133.189 136.716 133.365 136.95L135.826 139.763Z" fill="black"/>
<path d="M96.5318 167.527C97.235 166.004 98.9578 161.515 102.333 157.155C109.902 153.167 131.574 145.404 157.71 146.256L163.834 157.34C158.56 162.087 154.692 164.196 149.272 166.13V207.258L111.826 202.16V172.459C110.215 172.459 108.985 174.041 105.849 174.735L96.5318 167.527Z" fill="#FA4A29"/>
<path d="M112.001 296.212L111.825 202.16L135.207 205.148L120.967 296.212H112.001Z" fill="url(#paint7_linear)"/>
<path d="M163.646 242.145L149.322 206.906L122.261 203.566L133.268 226.907L144.274 250.248L106.024 281.427L110.456 290.059C121.839 284.481 146.362 270.865 156.423 264.34C170.169 255.427 165.178 246.549 163.646 242.145Z" fill="url(#paint8_linear)"/>
<path d="M106.347 295.694C107.753 292.881 108.778 290.294 110.243 289.532L106.903 281.972L98.2602 288.838L100.223 307.991H109.189C109.364 307.873 109.505 307.182 108.661 305.354C108.202 304.359 107.627 303.721 107.076 303.318C106.415 302.835 105.772 302.149 105.687 301.335C105.53 299.837 105.397 297.594 106.347 295.694Z" fill="#252B4E"/>
<path d="M122.726 302.541C120.053 302.26 119.854 297.912 120.089 296.212H113.233L112.705 307.991H131.691C131.75 307.522 131.656 306.303 130.812 305.178C129.757 303.772 126.066 302.893 122.726 302.541Z" fill="#252B4E"/>
<path fill-rule="evenodd" clip-rule="evenodd" d="M96.5314 167.527L90.3784 178.778C85.9834 186.689 84.0496 190.909 94.4218 195.479C94.7784 195.637 95.126 195.79 95.465 195.939C100.99 198.374 104.193 199.786 105.823 200.458C105.823 200.467 105.824 200.475 105.824 200.484C105.847 201.596 105.87 202.669 106.019 203.489C106.352 205.322 108.578 207.154 109.262 207.718C109.301 207.75 109.335 207.777 109.363 207.801C109.891 208.241 111.827 209.368 111.827 208.84C111.827 208.488 111.515 207.981 111.202 207.473C111.046 207.219 110.889 206.965 110.772 206.731C110.49 206.168 109.862 204.34 109.979 203.489C110.184 203.929 110.736 204.968 111.299 205.601C111.879 206.254 111.861 205.582 111.837 204.685C111.832 204.495 111.827 204.294 111.827 204.094C111.827 204.004 111.827 203.895 111.828 203.772C111.835 202.329 111.853 198.791 111.124 197.413C110.728 196.665 109.59 196.028 108.234 195.268C107.862 195.06 107.473 194.843 107.079 194.611V194.6L97.2346 188.272C96.5314 187.92 96.004 187.217 96.3556 186.162C96.5896 185.46 98.5613 182.81 100.668 179.978C102.253 177.848 103.913 175.616 104.97 174.032L96.5314 167.527Z" fill="url(#paint9_linear)"/>
<path fill-rule="evenodd" clip-rule="evenodd" d="M181.107 110.745L184.148 103.082C184.489 102.314 185.483 100.602 186.725 99.9004C187.967 99.1983 189.544 97.5779 190.177 96.8555C190.469 96.901 190.929 97.2117 190.436 98.0904C190.182 98.5417 189.685 99.106 189.239 99.6122C188.6 100.338 188.066 100.944 188.508 100.925C189.109 100.9 192.189 98.6627 193.653 97.5474C193.807 97.5216 194.178 97.6294 194.439 98.2673C194.684 99.0893 195.175 100.935 195.175 101.742C195.298 101.911 194.839 103.93 193.242 105.099C191.964 106.034 189.713 107.51 188.747 108.13C188.39 108.348 187.372 109.003 187.069 110.217L187.068 110.218C186.893 110.921 186.717 111.624 186.541 112.15L181.107 110.745ZM157.681 146.265L169.488 136.059L181.091 110.744L186.54 112.151C184.314 120.12 179.262 136.833 176.871 139.927C176.054 140.984 174.687 142.839 173.1 144.99C170.045 149.133 166.177 154.378 163.862 157.155L157.681 146.265Z" fill="url(#paint10_linear)"/>
<path d="M332.976 158.311C330.653 158.252 325.774 157.597 324.844 155.456C324.399 154.43 323.873 154.605 323.488 154.962C323.893 154.777 324.319 154.825 323.649 155.456C322.321 156.705 318.773 153.224 320.198 148.852C321.077 146.152 323.683 142.426 327.666 140.641C331.649 138.856 329.534 134.568 328.164 132.609C327.431 131.561 327.168 130.646 328.994 130.824C330.819 131.003 329.153 129.744 328.994 128.325C328.686 125.579 331.483 121.186 338.785 121.007C344.627 120.865 345.755 122.852 345.589 123.863C347.083 124.042 350.07 125.47 350.07 129.753C350.07 135.108 346.751 140.463 351.729 142.783C356.708 145.103 358.365 146.44 359.891 149.323C360.52 150.51 361.587 153.902 356.839 157.294C355.45 158.285 352.891 158.311 351.066 158.133C349.605 157.99 338.397 158.192 332.976 158.311Z" fill="black"/>
<path d="M332.343 138.638C330.922 136.786 333.473 129.932 335.226 126.427L343.78 124.053L344.045 146.44H345.137C346.833 146.44 347.833 146.722 348.794 146.948C348.907 147.344 348.896 148.441 347.946 149.662C346.759 151.188 343.536 152.715 339.805 152.884C336.074 153.054 333.191 149.153 332.852 147.627C332.58 146.406 333.774 146.609 336.244 146.412V139.825C335.735 139.995 333.774 140.504 332.343 138.638Z" fill="url(#paint11_linear)"/>
<path d="M323.089 153.902C325.803 148.882 331.23 146.948 333.604 146.609C334.169 148.136 336.318 151.154 340.388 151.019C344.458 150.883 346.607 148.022 347.172 146.609C348.585 146.609 352.192 147.559 355.313 151.358C358.433 155.157 358.987 160.29 358.874 162.382V191.213H327.499V169.166L318.849 164.586C319.132 163.117 320.375 158.922 323.089 153.902Z" fill="white"/>
<path d="M316.305 172.897L318.68 166.113L327.499 170.014C325.633 173.688 321.257 180.97 318.68 180.698C316.102 180.427 308.221 175.271 304.603 172.727L308.673 168.996L316.305 172.897Z" fill="url(#paint12_linear)"/>
<rect x="289" y="151.11" width="16.9597" height="25.1004" rx="2.03517" transform="rotate(-14.795 289 151.11)" fill="#FFC107"/>
<path d="M336.996 175.61L340.558 165.095L351.581 171.031C348.868 176.628 342.559 187.991 339.031 188.669C335.504 189.348 332.36 186.917 331.23 185.617L312.574 160.686L315.457 155.428L336.996 175.61Z" fill="url(#paint13_linear)"/>
<path d="M364.876 304.504C365.826 303.962 365.329 302.752 364.876 302.3L364.028 300.943L372.847 297.212C373.187 297.607 374.272 299.145 375.9 302.13C377.528 305.115 376.239 306.313 375.391 306.54C371.038 308.179 362.095 311.492 361.145 311.627C359.958 311.797 358.94 310.949 359.28 309.423C359.619 307.896 363.689 305.183 364.876 304.504Z" fill="#2C4067"/>
<path d="M311.723 302.204C312.808 302.339 313.852 301.067 313.762 300.434L314.101 297.72L322.751 298.568C322.785 299.089 322.456 303.548 321.969 306.913C321.482 310.279 319.732 310.465 318.918 310.137C314.451 308.839 305.307 306.128 304.466 305.667C303.414 305.091 303.108 303.802 304.295 302.784C305.481 301.766 310.366 302.035 311.723 302.204Z" fill="#2C4067"/>
<path d="M318.51 247.011C319.46 241.312 324.955 207.438 327.499 191.213H344.458V225.133L323.598 299.077L312.744 297.89C314.27 283.305 317.56 252.709 318.51 247.011Z" fill="url(#paint14_linear)"/>
<path d="M349.885 267.871C343.644 250.369 339.031 209.473 337.505 191.213H358.874C359.892 193.022 362.063 198.71 362.605 206.986C363.284 217.331 360.74 232.086 361.079 249.216C361.35 262.919 370.689 287.375 375.325 297.89L363.792 302.808C361.757 298.455 356.127 285.374 349.885 267.871Z" fill="url(#paint15_linear)"/>
<path d="M337.142 129.455C335.599 130.826 332.444 131.377 331.06 131.48C331.307 130.442 332.039 127.867 332.988 125.873C334.175 123.381 337.142 121.979 342.482 122.446C346.754 122.82 346.239 130.909 345.448 134.907C344.707 134.751 342.867 133.848 341.443 131.48C340.019 129.113 340.356 125.925 340.702 124.627C340.158 125.665 338.684 128.085 337.142 129.455Z" fill="black"/>
<path d="M310.03 156.954C311.147 158.64 311.726 159.498 312.574 160.686C313.21 159.668 318.876 158.8 317.153 156.954C315.698 155.396 313.365 150.904 312.062 149.301C310.759 147.698 307.513 147.164 306.805 147.026C306.097 146.888 303.745 146.83 304.012 147.316C304.279 147.802 305.37 148.254 306.05 148.723C306.594 149.099 308.097 150.462 308.419 151.304C308.008 151.003 306.975 150.327 306.137 150.029C305.088 149.656 305.835 150.631 306.413 151.683C306.992 152.735 309.012 155.418 310.03 156.954Z" fill="url(#paint16_linear)"/>
<path d="M293.586 160.855C293.314 162.348 292.342 162.608 291.89 162.551C291.347 162.551 290.872 162.438 290.703 162.382C290.194 161.195 289.142 158.583 289.007 157.633C288.871 156.683 290.872 156.107 291.89 155.937C292.568 156.955 293.857 159.363 293.586 160.855Z" fill="#1C2951"/>
<g style="mix-blend-mode:overlay">
<rect x="25.3037" y="42.0708" width="87.5479" height="4.21918" rx="2.10959" fill="white"/>
</g>
<g style="mix-blend-mode:overlay">
<rect x="25.3037" y="52.6187" width="60.4749" height="4.21918" rx="2.10959" fill="white"/>
</g>
<rect width="37.5481" height="6.25802" rx="1.69709" transform="matrix(-1 0 0 1 260.594 294.485)" fill="url(#paint17_linear)"/>
<rect width="37.5481" height="6.25802" rx="1.69709" transform="matrix(-1 0 0 1 260.594 288.227)" fill="url(#paint18_linear)"/>
<rect width="37.5481" height="6.25802" rx="1.69709" transform="matrix(-1 0 0 1 257.464 281.969)" fill="url(#paint19_linear)"/>
<rect width="37.5481" height="6.25802" rx="1.69709" transform="matrix(-1 0 0 1 257.464 300.743)" fill="url(#paint20_linear)"/>
<rect width="37.5481" height="6.25802" rx="1.69709" transform="matrix(-0.676797 -0.73617 -0.73617 0.676797 283.929 302.822)" fill="url(#paint21_linear)"/>
<defs>
<filter id="filter0_bi" x="113.203" y="68.0888" width="84.3836" height="118.137" filterUnits="userSpaceOnUse" color-interpolation-filters="sRGB">
<feFlood flood-opacity="0" result="BackgroundImageFix"/>
<feGaussianBlur in="BackgroundImage" stdDeviation="1.75799"/>
<feComposite in2="SourceAlpha" operator="in" result="effect1_backgroundBlur"/>
<feBlend mode="normal" in="SourceGraphic" in2="effect1_backgroundBlur" result="shape"/>
<feColorMatrix in="SourceAlpha" type="matrix" values="0 0 0 0 0 0 0 0 0 0 0 0 0 0 0 0 0 0 127 0" result="hardAlpha"/>
<feOffset dy="2.81279"/>
<feGaussianBlur stdDeviation="2.81279"/>
<feComposite in2="hardAlpha" operator="arithmetic" k2="-1" k3="1"/>
<feColorMatrix type="matrix" values="0 0 0 0 0.286275 0 0 0 0 0.392157 0 0 0 0 0.819608 0 0 0 0.16 0"/>
<feBlend mode="normal" in2="shape" result="effect2_innerShadow"/>
</filter>
<linearGradient id="paint0_linear" x1="166.363" y1="23.7876" x2="166.363" y2="218.292" gradientUnits="userSpaceOnUse">
<stop stop-color="#1C2951"/>
<stop offset="1" stop-color="#162145"/>
</linearGradient>
<radialGradient id="paint1_radial" cx="0" cy="0" r="1" gradientUnits="userSpaceOnUse" gradientTransform="translate(138.757 145.343) rotate(-55.4058) scale(110.59 165.43)">
<stop stop-color="white" stop-opacity="0.7"/>
<stop offset="1" stop-color="#F8F9FB" stop-opacity="0.1"/>
</radialGradient>
<radialGradient id="paint2_radial" cx="0" cy="0" r="1" gradientUnits="userSpaceOnUse" gradientTransform="translate(178.503 89.7729) rotate(120.394) scale(102.884 91.1218)">
<stop offset="0.108953" stop-color="white" stop-opacity="0.7"/>
<stop offset="0.926709" stop-color="white" stop-opacity="0.1"/>
</radialGradient>
<linearGradient id="paint3_linear" x1="122.316" y1="176.446" x2="155.497" y2="108.275" gradientUnits="userSpaceOnUse">
<stop stop-color="white"/>
<stop offset="1" stop-color="white" stop-opacity="0"/>
</linearGradient>
<linearGradient id="paint4_linear" x1="176.536" y1="119.044" x2="143.677" y2="96.3214" gradientUnits="userSpaceOnUse">
<stop offset="0.258872" stop-color="#FFC107"/>
<stop offset="0.995208" stop-color="#F89619"/>
</linearGradient>
<linearGradient id="paint5_linear" x1="173.777" y1="118.692" x2="140.918" y2="95.9696" gradientUnits="userSpaceOnUse">
<stop offset="0.239169" stop-color="#F89619"/>
<stop offset="0.827745" stop-color="#FFC107"/>
</linearGradient>
<linearGradient id="paint6_linear" x1="140.051" y1="131.663" x2="130.954" y2="151.172" gradientUnits="userSpaceOnUse">
<stop offset="0.68125" stop-color="#F4AE82"/>
<stop offset="1" stop-color="#EF8C4E"/>
</linearGradient>
<linearGradient id="paint7_linear" x1="123.451" y1="293.957" x2="123.451" y2="213.211" gradientUnits="userSpaceOnUse">
<stop offset="0.094972" stop-color="#1E2675"/>
<stop offset="0.810056" stop-color="#242A4D"/>
</linearGradient>
<linearGradient id="paint8_linear" x1="135.745" y1="287.985" x2="135.745" y2="213.729" gradientUnits="userSpaceOnUse">
<stop offset="0.094972" stop-color="#1E2675"/>
<stop offset="0.810056" stop-color="#242A4D"/>
</linearGradient>
<linearGradient id="paint9_linear" x1="85.7544" y1="200.705" x2="105.048" y2="168.145" gradientUnits="userSpaceOnUse">
<stop offset="0.66151" stop-color="#F4AE82"/>
<stop offset="1" stop-color="#EF8C4E"/>
</linearGradient>
<linearGradient id="paint10_linear" x1="190.526" y1="100.731" x2="157.706" y2="157.03" gradientUnits="userSpaceOnUse">
<stop offset="0.68125" stop-color="#F4AE82"/>
<stop offset="1" stop-color="#EF8C4E"/>
</linearGradient>
<linearGradient id="paint11_linear" x1="334.452" y1="136.603" x2="343.639" y2="143.994" gradientUnits="userSpaceOnUse">
<stop offset="0.0251061" stop-color="#F2A575"/>
<stop offset="1" stop-color="#EF8C4E"/>
</linearGradient>
<linearGradient id="paint12_linear" x1="322.789" y1="178.928" x2="309.948" y2="165.232" gradientUnits="userSpaceOnUse">
<stop offset="0.80394" stop-color="#F2A575"/>
<stop offset="1" stop-color="#EF8C4E"/>
</linearGradient>
<linearGradient id="paint13_linear" x1="314.948" y1="164.417" x2="341.727" y2="166.306" gradientUnits="userSpaceOnUse">
<stop offset="0.25879" stop-color="#F2A575"/>
<stop offset="1" stop-color="#EF8C4E"/>
</linearGradient>
<linearGradient id="paint14_linear" x1="328.689" y1="296.491" x2="328.689" y2="203.888" gradientUnits="userSpaceOnUse">
<stop offset="0.094972" stop-color="#1E2675"/>
<stop offset="0.810056" stop-color="#242A4D"/>
</linearGradient>
<linearGradient id="paint15_linear" x1="356.519" y1="300.132" x2="356.519" y2="204.326" gradientUnits="userSpaceOnUse">
<stop offset="0.094972" stop-color="#1E2675"/>
<stop offset="0.810056" stop-color="#242A4D"/>
</linearGradient>
<linearGradient id="paint16_linear" x1="309.706" y1="146.271" x2="315.966" y2="157.972" gradientUnits="userSpaceOnUse">
<stop stop-color="#EF8C4E"/>
<stop offset="0.80394" stop-color="#F2A575"/>
</linearGradient>
<linearGradient id="paint17_linear" x1="34.8885" y1="6.25802" x2="33.1383" y2="-3.52557" gradientUnits="userSpaceOnUse">
<stop offset="0.239169" stop-color="#F89619"/>
<stop offset="0.73389" stop-color="#FFC107"/>
</linearGradient>
<linearGradient id="paint18_linear" x1="34.8885" y1="6.25802" x2="33.1383" y2="-3.52557" gradientUnits="userSpaceOnUse">
<stop offset="0.239169" stop-color="#F89619"/>
<stop offset="0.73389" stop-color="#FFC107"/>
</linearGradient>
<linearGradient id="paint19_linear" x1="34.8885" y1="6.25802" x2="33.1383" y2="-3.52557" gradientUnits="userSpaceOnUse">
<stop offset="0.239169" stop-color="#F89619"/>
<stop offset="0.73389" stop-color="#FFC107"/>
</linearGradient>
<linearGradient id="paint20_linear" x1="34.8885" y1="6.25802" x2="33.1383" y2="-3.52557" gradientUnits="userSpaceOnUse">
<stop offset="0.239169" stop-color="#F89619"/>
<stop offset="0.73389" stop-color="#FFC107"/>
</linearGradient>
<linearGradient id="paint21_linear" x1="34.8885" y1="6.25802" x2="33.1383" y2="-3.52557" gradientUnits="userSpaceOnUse">
<stop offset="0.239169" stop-color="#F89619"/>
<stop offset="0.73389" stop-color="#FFC107"/>
</linearGradient>
</defs>
</svg>
