<svg xmlns="http://www.w3.org/2000/svg" xmlns:xlink="http://www.w3.org/1999/xlink" width="140" zoomAndPan="magnify" viewBox="0 0 104.88 30.000001" height="40" preserveAspectRatio="xMidYMid meet" version="1.0"><defs><g/><clipPath id="bff6913717"><path d="M 7.003906 3.34375 L 29.503906 3.34375 L 29.503906 25.84375 L 7.003906 25.84375 Z M 7.003906 3.34375 " clip-rule="nonzero"/></clipPath></defs><g fill="#df1541" fill-opacity="1"><g transform="translate(33.292918, 21.927593)"><g><path d="M 4.609375 0.21875 C 3.941406 0.21875 3.296875 0.046875 2.671875 -0.296875 C 2.046875 -0.640625 1.53125 -1.179688 1.125 -1.921875 C 0.726562 -2.671875 0.53125 -3.644531 0.53125 -4.84375 C 0.53125 -6.175781 0.726562 -7.242188 1.125 -8.046875 C 1.519531 -8.847656 2.03125 -9.429688 2.65625 -9.796875 C 3.289062 -10.160156 3.941406 -10.34375 4.609375 -10.34375 C 5.628906 -10.34375 6.347656 -10.253906 6.765625 -10.078125 C 7.191406 -9.910156 7.40625 -9.828125 7.40625 -9.828125 L 7.1875 -13.875 L 7.40625 -15.171875 L 11.28125 -15.171875 L 11.28125 -3.4375 L 11.71875 -1.28125 L 11.28125 0.015625 L 7.609375 0.015625 L 7.609375 -1.03125 L 7.40625 -1.140625 C 7.40625 -1.140625 7.296875 -1.023438 7.078125 -0.796875 C 6.859375 -0.578125 6.539062 -0.351562 6.125 -0.125 C 5.71875 0.101562 5.210938 0.21875 4.609375 0.21875 Z M 6.21875 -2.8125 L 7.40625 -3.109375 L 7.40625 -6.25 C 7.40625 -6.570312 7.296875 -6.828125 7.078125 -7.015625 C 6.859375 -7.210938 6.570312 -7.3125 6.21875 -7.3125 C 5.6875 -7.3125 5.285156 -7.132812 5.015625 -6.78125 C 4.742188 -6.4375 4.609375 -5.863281 4.609375 -5.0625 C 4.609375 -4.28125 4.765625 -3.707031 5.078125 -3.34375 C 5.398438 -2.988281 5.78125 -2.8125 6.21875 -2.8125 Z M 6.21875 -2.8125 "/></g></g></g><g fill="#df1541" fill-opacity="1"><g transform="translate(45.860853, 21.927593)"><g><path d="M 6.21875 0.21875 C 5.113281 0.21875 4.132812 0.0546875 3.28125 -0.265625 C 2.425781 -0.597656 1.753906 -1.148438 1.265625 -1.921875 C 0.773438 -2.703125 0.53125 -3.75 0.53125 -5.0625 C 0.53125 -6.007812 0.691406 -6.816406 1.015625 -7.484375 C 1.335938 -8.160156 1.769531 -8.707031 2.3125 -9.125 C 2.851562 -9.550781 3.460938 -9.859375 4.140625 -10.046875 C 4.816406 -10.242188 5.507812 -10.34375 6.21875 -10.34375 C 7.445312 -10.34375 8.394531 -10.21875 9.0625 -9.96875 C 9.726562 -9.726562 10.171875 -9.535156 10.390625 -9.390625 L 11.453125 -5.984375 L 11.03125 -4.65625 L 4.375 -4.65625 C 4.476562 -4.125 4.742188 -3.675781 5.171875 -3.3125 C 5.597656 -2.957031 6.304688 -2.78125 7.296875 -2.78125 C 8.066406 -2.78125 8.726562 -2.863281 9.28125 -3.03125 C 9.84375 -3.207031 10.28125 -3.363281 10.59375 -3.5 L 10.59375 -0.625 C 10.164062 -0.394531 9.546875 -0.195312 8.734375 -0.03125 C 7.929688 0.132812 7.09375 0.21875 6.21875 0.21875 Z M 4.390625 -6.03125 L 7.359375 -6.453125 L 7.171875 -7.375 C 7.066406 -7.4375 6.914062 -7.476562 6.71875 -7.5 C 6.53125 -7.53125 6.363281 -7.546875 6.21875 -7.546875 C 5.820312 -7.546875 5.488281 -7.457031 5.21875 -7.28125 C 4.957031 -7.113281 4.757812 -6.910156 4.625 -6.671875 C 4.488281 -6.441406 4.410156 -6.226562 4.390625 -6.03125 Z M 4.390625 -6.03125 "/></g></g></g><g fill="#df1541" fill-opacity="1"><g transform="translate(57.828268, 21.927593)"><g><path d="M 8.125 0.21875 C 7.207031 0.21875 6.316406 0.109375 5.453125 -0.109375 C 4.585938 -0.335938 3.804688 -0.738281 3.109375 -1.3125 C 2.421875 -1.882812 1.875 -2.675781 1.46875 -3.6875 C 1.0625 -4.707031 0.859375 -6.007812 0.859375 -7.59375 C 0.859375 -9.175781 1.0625 -10.472656 1.46875 -11.484375 C 1.875 -12.503906 2.421875 -13.300781 3.109375 -13.875 C 3.804688 -14.445312 4.585938 -14.84375 5.453125 -15.0625 C 6.316406 -15.289062 7.207031 -15.40625 8.125 -15.40625 C 9.039062 -15.40625 9.929688 -15.289062 10.796875 -15.0625 C 11.660156 -14.832031 12.441406 -14.429688 13.140625 -13.859375 C 13.835938 -13.285156 14.390625 -12.488281 14.796875 -11.46875 C 15.203125 -10.457031 15.40625 -9.164062 15.40625 -7.59375 C 15.40625 -6.019531 15.203125 -4.722656 14.796875 -3.703125 C 14.390625 -2.691406 13.835938 -1.898438 13.140625 -1.328125 C 12.441406 -0.753906 11.660156 -0.351562 10.796875 -0.125 C 9.929688 0.101562 9.039062 0.21875 8.125 0.21875 Z M 8.125 -3.4375 C 9.1875 -3.4375 9.988281 -3.75 10.53125 -4.375 C 11.070312 -5.007812 11.34375 -6.082031 11.34375 -7.59375 C 11.34375 -9.113281 11.070312 -10.1875 10.53125 -10.8125 C 9.988281 -11.4375 9.1875 -11.75 8.125 -11.75 C 7.082031 -11.75 6.289062 -11.425781 5.75 -10.78125 C 5.207031 -10.144531 4.9375 -9.082031 4.9375 -7.59375 C 4.9375 -6.101562 5.207031 -5.035156 5.75 -4.390625 C 6.289062 -3.753906 7.082031 -3.4375 8.125 -3.4375 Z M 8.125 -3.4375 "/></g></g></g><g fill="#df1541" fill-opacity="1"><g transform="translate(74.085073, 21.927593)"><g><path d="M 4.71875 0 L 4.71875 -11.75 L 0.421875 -11.546875 L 0.421875 -15.1875 L 12.984375 -15.1875 L 12.984375 -11.546875 L 8.578125 -11.75 L 8.578125 -3.4375 L 8.8125 -1.28125 L 8.578125 0 Z M 4.71875 0 "/></g></g></g><g fill="#df1541" fill-opacity="1"><g transform="translate(87.489432, 21.927593)"><g><path d="M 8.5625 0.21875 C 7.582031 0.21875 6.632812 0.109375 5.71875 -0.109375 C 4.8125 -0.335938 3.988281 -0.738281 3.25 -1.3125 C 2.507812 -1.882812 1.925781 -2.675781 1.5 -3.6875 C 1.070312 -4.707031 0.859375 -6.007812 0.859375 -7.59375 C 0.859375 -9.0625 1.070312 -10.296875 1.5 -11.296875 C 1.925781 -12.304688 2.5 -13.109375 3.21875 -13.703125 C 3.9375 -14.304688 4.71875 -14.738281 5.5625 -15 C 6.414062 -15.269531 7.269531 -15.40625 8.125 -15.40625 C 8.851562 -15.40625 9.566406 -15.347656 10.265625 -15.234375 C 10.960938 -15.117188 11.46875 -14.988281 11.78125 -14.84375 L 14.15625 -12.890625 L 12.234375 -9.78125 L 8.5625 -11.671875 C 7.539062 -11.671875 6.679688 -11.335938 5.984375 -10.671875 C 5.285156 -10.003906 4.9375 -8.976562 4.9375 -7.59375 C 4.9375 -6.601562 5.109375 -5.800781 5.453125 -5.1875 C 5.804688 -4.570312 6.289062 -4.117188 6.90625 -3.828125 C 7.519531 -3.546875 8.222656 -3.40625 9.015625 -3.40625 C 9.835938 -3.40625 10.539062 -3.472656 11.125 -3.609375 C 11.71875 -3.742188 12.234375 -3.90625 12.671875 -4.09375 C 13.117188 -4.289062 13.539062 -4.484375 13.9375 -4.671875 L 13.9375 -1.078125 C 13.4375 -0.753906 12.769531 -0.457031 11.9375 -0.1875 C 11.113281 0.0820312 9.988281 0.21875 8.5625 0.21875 Z M 8.5625 0.21875 "/></g></g></g><g clip-path="url(#bff6913717)"><path fill="#df1541" d="M 23.761719 6.535156 L 12.589844 6.535156 C 11.273438 6.535156 10.195312 7.609375 10.195312 8.925781 L 10.195312 20.097656 C 10.195312 21.414062 11.273438 22.492188 12.589844 22.492188 L 23.761719 22.492188 C 25.078125 22.492188 26.152344 21.414062 26.152344 20.097656 L 26.152344 8.925781 C 26.152344 7.609375 25.078125 6.535156 23.761719 6.535156 Z M 17.777344 13.714844 L 18.527344 13.714844 C 19.628906 13.714844 20.519531 14.609375 20.519531 15.710938 C 20.519531 16.683594 19.859375 17.480469 18.972656 17.6875 L 18.972656 18.503906 C 18.972656 18.941406 18.613281 19.300781 18.175781 19.300781 C 17.734375 19.300781 17.378906 18.941406 17.378906 18.503906 L 17.378906 17.734375 L 16.578125 17.734375 C 16.140625 17.734375 15.78125 17.386719 15.78125 16.9375 C 15.78125 16.5 16.140625 16.140625 16.578125 16.140625 L 18.527344 16.140625 C 18.75 16.140625 18.925781 15.964844 18.925781 15.742188 C 18.925781 15.484375 18.75 15.308594 18.527344 15.308594 L 17.777344 15.308594 C 16.675781 15.308594 15.78125 14.417969 15.78125 13.316406 C 15.78125 12.351562 16.46875 11.542969 17.378906 11.359375 L 17.378906 10.523438 C 17.378906 10.085938 17.734375 9.726562 18.175781 9.726562 C 18.613281 9.726562 18.972656 10.085938 18.972656 10.523438 L 18.972656 11.320312 L 19.722656 11.320312 C 20.160156 11.320312 20.519531 11.679688 20.519531 12.117188 C 20.519531 12.558594 20.160156 12.917969 19.722656 12.917969 L 17.777344 12.917969 C 17.554688 12.917969 17.378906 13.09375 17.378906 13.316406 C 17.378906 13.539062 17.554688 13.714844 17.777344 13.714844 Z M 18.972656 4.140625 L 18.972656 4.9375 L 17.378906 4.9375 L 17.378906 4.140625 C 17.378906 3.699219 17.734375 3.34375 18.175781 3.34375 C 18.613281 3.34375 18.972656 3.699219 18.972656 4.140625 Z M 15.78125 4.140625 L 15.78125 4.9375 L 14.1875 4.9375 L 14.1875 4.140625 C 14.1875 3.699219 14.542969 3.34375 14.984375 3.34375 C 15.421875 3.34375 15.78125 3.699219 15.78125 4.140625 Z M 22.164062 4.140625 L 22.164062 4.9375 L 20.570312 4.9375 L 20.570312 4.140625 C 20.570312 3.699219 20.929688 3.34375 21.367188 3.34375 C 21.804688 3.34375 22.164062 3.699219 22.164062 4.140625 Z M 17.378906 24.085938 L 18.972656 24.085938 L 18.972656 24.886719 C 18.972656 25.324219 18.613281 25.683594 18.175781 25.683594 C 17.734375 25.683594 17.378906 25.324219 17.378906 24.886719 Z M 14.1875 24.085938 L 15.78125 24.085938 L 15.78125 24.886719 C 15.78125 25.324219 15.421875 25.683594 14.984375 25.683594 C 14.542969 25.683594 14.1875 25.324219 14.1875 24.886719 Z M 20.570312 24.085938 L 22.164062 24.085938 L 22.164062 24.886719 C 22.164062 25.324219 21.804688 25.683594 21.367188 25.683594 C 20.929688 25.683594 20.570312 25.324219 20.570312 24.886719 Z M 29.347656 14.511719 C 29.347656 14.953125 28.988281 15.308594 28.546875 15.308594 L 27.75 15.308594 L 27.75 13.714844 L 28.546875 13.714844 C 28.988281 13.714844 29.347656 14.074219 29.347656 14.511719 Z M 29.347656 11.320312 C 29.347656 11.761719 28.988281 12.117188 28.546875 12.117188 L 27.75 12.117188 L 27.75 10.523438 L 28.546875 10.523438 C 28.988281 10.523438 29.347656 10.882812 29.347656 11.320312 Z M 29.347656 17.703125 C 29.347656 18.144531 28.988281 18.503906 28.546875 18.503906 L 27.75 18.503906 L 27.75 16.90625 L 28.546875 16.90625 C 28.988281 16.90625 29.347656 17.265625 29.347656 17.703125 Z M 7.800781 13.714844 L 8.601562 13.714844 L 8.601562 15.308594 L 7.800781 15.308594 C 7.363281 15.308594 7.003906 14.953125 7.003906 14.511719 C 7.003906 14.074219 7.363281 13.714844 7.800781 13.714844 Z M 7.800781 10.523438 L 8.601562 10.523438 L 8.601562 12.117188 L 7.800781 12.117188 C 7.363281 12.117188 7.003906 11.761719 7.003906 11.320312 C 7.003906 10.882812 7.363281 10.523438 7.800781 10.523438 Z M 7.800781 16.90625 L 8.601562 16.90625 L 8.601562 18.503906 L 7.800781 18.503906 C 7.363281 18.503906 7.003906 18.144531 7.003906 17.703125 C 7.003906 17.265625 7.363281 16.90625 7.800781 16.90625 Z M 7.800781 16.90625 " fill-opacity="1" fill-rule="nonzero"/></g></svg>