<svg xmlns="http://www.w3.org/2000/svg" xmlns:xlink="http://www.w3.org/1999/xlink" width="140" zoomAndPan="magnify" viewBox="0 0 104.88 30.000001" height="40" preserveAspectRatio="xMidYMid meet" version="1.0"><defs><g/><clipPath id="a30b96955a"><path d="M 7.003906 3.34375 L 29.503906 3.34375 L 29.503906 25.84375 L 7.003906 25.84375 Z M 7.003906 3.34375 " clip-rule="nonzero"/></clipPath></defs><g fill="#000000" fill-opacity="1"><g transform="translate(33.292918, 21.927593)"><g><path d="M 4.609375 0.21875 C 3.941406 0.21875 3.296875 0.046875 2.671875 -0.296875 C 2.046875 -0.640625 1.53125 -1.179688 1.125 -1.921875 C 0.726562 -2.671875 0.53125 -3.644531 0.53125 -4.84375 C 0.53125 -6.175781 0.726562 -7.242188 1.125 -8.046875 C 1.519531 -8.847656 2.03125 -9.429688 2.65625 -9.796875 C 3.289062 -10.160156 3.941406 -10.34375 4.609375 -10.34375 C 5.628906 -10.34375 6.347656 -10.253906 6.765625 -10.078125 C 7.191406 -9.910156 7.40625 -9.828125 7.40625 -9.828125 L 7.1875 -13.875 L 7.40625 -15.171875 L 11.28125 -15.171875 L 11.28125 -3.4375 L 11.71875 -1.28125 L 11.28125 0.015625 L 7.609375 0.015625 L 7.609375 -1.03125 L 7.40625 -1.140625 C 7.40625 -1.140625 7.296875 -1.023438 7.078125 -0.796875 C 6.859375 -0.578125 6.539062 -0.351562 6.125 -0.125 C 5.71875 0.101562 5.210938 0.21875 4.609375 0.21875 Z M 6.21875 -2.8125 L 7.40625 -3.109375 L 7.40625 -6.25 C 7.40625 -6.570312 7.296875 -6.828125 7.078125 -7.015625 C 6.859375 -7.210938 6.570312 -7.3125 6.21875 -7.3125 C 5.6875 -7.3125 5.285156 -7.132812 5.015625 -6.78125 C 4.742188 -6.4375 4.609375 -5.863281 4.609375 -5.0625 C 4.609375 -4.28125 4.765625 -3.707031 5.078125 -3.34375 C 5.398438 -2.988281 5.78125 -2.8125 6.21875 -2.8125 Z M 6.21875 -2.8125 "/></g></g></g><g fill="#000000" fill-opacity="1"><g transform="translate(45.860853, 21.927593)"><g><path d="M 6.21875 0.21875 C 5.113281 0.21875 4.132812 0.0546875 3.28125 -0.265625 C 2.425781 -0.597656 1.753906 -1.148438 1.265625 -1.921875 C 0.773438 -2.703125 0.53125 -3.75 0.53125 -5.0625 C 0.53125 -6.007812 0.691406 -6.816406 1.015625 -7.484375 C 1.335938 -8.160156 1.769531 -8.707031 2.3125 -9.125 C 2.851562 -9.550781 3.460938 -9.859375 4.140625 -10.046875 C 4.816406 -10.242188 5.507812 -10.34375 6.21875 -10.34375 C 7.445312 -10.34375 8.394531 -10.21875 9.0625 -9.96875 C 9.726562 -9.726562 10.171875 -9.535156 10.390625 -9.390625 L 11.453125 -5.984375 L 11.03125 -4.65625 L 4.375 -4.65625 C 4.476562 -4.125 4.742188 -3.675781 5.171875 -3.3125 C 5.597656 -2.957031 6.304688 -2.78125 7.296875 -2.78125 C 8.066406 -2.78125 8.726562 -2.863281 9.28125 -3.03125 C 9.84375 -3.207031 10.28125 -3.363281 10.59375 -3.5 L 10.59375 -0.625 C 10.164062 -0.394531 9.546875 -0.195312 8.734375 -0.03125 C 7.929688 0.132812 7.09375 0.21875 6.21875 0.21875 Z M 4.390625 -6.03125 L 7.359375 -6.453125 L 7.171875 -7.375 C 7.066406 -7.4375 6.914062 -7.476562 6.71875 -7.5 C 6.53125 -7.53125 6.363281 -7.546875 6.21875 -7.546875 C 5.820312 -7.546875 5.488281 -7.457031 5.21875 -7.28125 C 4.957031 -7.113281 4.757812 -6.910156 4.625 -6.671875 C 4.488281 -6.441406 4.410156 -6.226562 4.390625 -6.03125 Z M 4.390625 -6.03125 "/></g></g></g><g fill="#000000" fill-opacity="1"><g transform="translate(57.828268, 21.927593)"><g><path d="M 8.125 0.21875 C 7.207031 0.21875 6.316406 0.109375 5.453125 -0.109375 C 4.585938 -0.335938 3.804688 -0.738281 3.109375 -1.3125 C 2.421875 -1.882812 1.875 -2.675781 1.46875 -3.6875 C 1.0625 -4.707031 0.859375 -6.007812 0.859375 -7.59375 C 0.859375 -9.175781 1.0625 -10.472656 1.46875 -11.484375 C 1.875 -12.503906 2.421875 -13.300781 3.109375 -13.875 C 3.804688 -14.445312 4.585938 -14.84375 5.453125 -15.0625 C 6.316406 -15.289062 7.207031 -15.40625 8.125 -15.40625 C 9.039062 -15.40625 9.929688 -15.289062 10.796875 -15.0625 C 11.660156 -14.832031 12.441406 -14.429688 13.140625 -13.859375 C 13.835938 -13.285156 14.390625 -12.488281 14.796875 -11.46875 C 15.203125 -10.457031 15.40625 -9.164062 15.40625 -7.59375 C 15.40625 -6.019531 15.203125 -4.722656 14.796875 -3.703125 C 14.390625 -2.691406 13.835938 -1.898438 13.140625 -1.328125 C 12.441406 -0.753906 11.660156 -0.351562 10.796875 -0.125 C 9.929688 0.101562 9.039062 0.21875 8.125 0.21875 Z M 8.125 -3.4375 C 9.1875 -3.4375 9.988281 -3.75 10.53125 -4.375 C 11.070312 -5.007812 11.34375 -6.082031 11.34375 -7.59375 C 11.34375 -9.113281 11.070312 -10.1875 10.53125 -10.8125 C 9.988281 -11.4375 9.1875 -11.75 8.125 -11.75 C 7.082031 -11.75 6.289062 -11.425781 5.75 -10.78125 C 5.207031 -10.144531 4.9375 -9.082031 4.9375 -7.59375 C 4.9375 -6.101562 5.207031 -5.035156 5.75 -4.390625 C 6.289062 -3.753906 7.082031 -3.4375 8.125 -3.4375 Z M 8.125 -3.4375 "/></g></g></g><g fill="#000000" fill-opacity="1"><g transform="translate(74.085073, 21.927593)"><g><path d="M 4.71875 0 L 4.71875 -11.75 L 0.421875 -11.546875 L 0.421875 -15.1875 L 12.984375 -15.1875 L 12.984375 -11.546875 L 8.578125 -11.75 L 8.578125 -3.4375 L 8.8125 -1.28125 L 8.578125 0 Z M 4.71875 0 "/></g></g></g><g fill="#000000" fill-opacity="1"><g transform="translate(87.489432, 21.927593)"><g><path d="M 8.5625 0.21875 C 7.582031 0.21875 6.632812 0.109375 5.71875 -0.109375 C 4.8125 -0.335938 3.988281 -0.738281 3.25 -1.3125 C 2.507812 -1.882812 1.925781 -2.675781 1.5 -3.6875 C 1.070312 -4.707031 0.859375 -6.007812 0.859375 -7.59375 C 0.859375 -9.0625 1.070312 -10.296875 1.5 -11.296875 C 1.925781 -12.304688 2.5 -13.109375 3.21875 -13.703125 C 3.9375 -14.304688 4.71875 -14.738281 5.5625 -15 C 6.414062 -15.269531 7.269531 -15.40625 8.125 -15.40625 C 8.851562 -15.40625 9.566406 -15.347656 10.265625 -15.234375 C 10.960938 -15.117188 11.46875 -14.988281 11.78125 -14.84375 L 14.15625 -12.890625 L 12.234375 -9.78125 L 8.5625 -11.671875 C 7.539062 -11.671875 6.679688 -11.335938 5.984375 -10.671875 C 5.285156 -10.003906 4.9375 -8.976562 4.9375 -7.59375 C 4.9375 -6.601562 5.109375 -5.800781 5.453125 -5.1875 C 5.804688 -4.570312 6.289062 -4.117188 6.90625 -3.828125 C 7.519531 -3.546875 8.222656 -3.40625 9.015625 -3.40625 C 9.835938 -3.40625 10.539062 -3.472656 11.125 -3.609375 C 11.71875 -3.742188 12.234375 -3.90625 12.671875 -4.09375 C 13.117188 -4.289062 13.539062 -4.484375 13.9375 -4.671875 L 13.9375 -1.078125 C 13.4375 -0.753906 12.769531 -0.457031 11.9375 -0.1875 C 11.113281 0.0820312 9.988281 0.21875 8.5625 0.21875 Z M 8.5625 0.21875 "/></g></g></g><g clip-path="url(#a30b96955a)"><path fill="#000000" d="M 23.878906 6.554688 L 12.628906 6.554688 C 11.304688 6.554688 10.21875 7.640625 10.21875 8.96875 L 10.21875 20.21875 C 10.21875 21.542969 11.304688 22.628906 12.628906 22.628906 L 23.878906 22.628906 C 25.207031 22.628906 26.289062 21.542969 26.289062 20.21875 L 26.289062 8.96875 C 26.289062 7.640625 25.207031 6.554688 23.878906 6.554688 Z M 17.851562 13.789062 L 18.609375 13.789062 C 19.71875 13.789062 20.617188 14.6875 20.617188 15.796875 C 20.617188 16.777344 19.949219 17.582031 19.058594 17.789062 L 19.058594 18.609375 C 19.058594 19.050781 18.695312 19.414062 18.253906 19.414062 C 17.8125 19.414062 17.449219 19.050781 17.449219 18.609375 L 17.449219 17.839844 L 16.648438 17.839844 C 16.207031 17.839844 15.84375 17.484375 15.84375 17.035156 C 15.84375 16.59375 16.207031 16.230469 16.648438 16.230469 L 18.609375 16.230469 C 18.832031 16.230469 19.011719 16.054688 19.011719 15.828125 C 19.011719 15.574219 18.832031 15.394531 18.609375 15.394531 L 17.851562 15.394531 C 16.742188 15.394531 15.84375 14.496094 15.84375 13.386719 C 15.84375 12.414062 16.535156 11.601562 17.449219 11.417969 L 17.449219 10.574219 C 17.449219 10.132812 17.8125 9.769531 18.253906 9.769531 C 18.695312 9.769531 19.058594 10.132812 19.058594 10.574219 L 19.058594 11.378906 L 19.8125 11.378906 C 20.253906 11.378906 20.617188 11.738281 20.617188 12.179688 C 20.617188 12.625 20.253906 12.984375 19.8125 12.984375 L 17.851562 12.984375 C 17.628906 12.984375 17.449219 13.160156 17.449219 13.386719 C 17.449219 13.613281 17.628906 13.789062 17.851562 13.789062 Z M 19.058594 4.144531 L 19.058594 4.949219 L 17.449219 4.949219 L 17.449219 4.144531 C 17.449219 3.703125 17.8125 3.34375 18.253906 3.34375 C 18.695312 3.34375 19.058594 3.703125 19.058594 4.144531 Z M 15.84375 4.144531 L 15.84375 4.949219 L 14.238281 4.949219 L 14.238281 4.144531 C 14.238281 3.703125 14.597656 3.34375 15.039062 3.34375 C 15.480469 3.34375 15.84375 3.703125 15.84375 4.144531 Z M 22.273438 4.144531 L 22.273438 4.949219 L 20.664062 4.949219 L 20.664062 4.144531 C 20.664062 3.703125 21.027344 3.34375 21.46875 3.34375 C 21.910156 3.34375 22.273438 3.703125 22.273438 4.144531 Z M 17.449219 24.234375 L 19.058594 24.234375 L 19.058594 25.039062 C 19.058594 25.480469 18.695312 25.84375 18.253906 25.84375 C 17.8125 25.84375 17.449219 25.480469 17.449219 25.039062 Z M 14.238281 24.234375 L 15.84375 24.234375 L 15.84375 25.039062 C 15.84375 25.480469 15.480469 25.84375 15.039062 25.84375 C 14.597656 25.84375 14.238281 25.480469 14.238281 25.039062 Z M 20.664062 24.234375 L 22.273438 24.234375 L 22.273438 25.039062 C 22.273438 25.480469 21.910156 25.84375 21.46875 25.84375 C 21.027344 25.84375 20.664062 25.480469 20.664062 25.039062 Z M 29.503906 14.59375 C 29.503906 15.035156 29.144531 15.394531 28.699219 15.394531 L 27.898438 15.394531 L 27.898438 13.789062 L 28.699219 13.789062 C 29.144531 13.789062 29.503906 14.148438 29.503906 14.59375 Z M 29.503906 11.378906 C 29.503906 11.820312 29.144531 12.179688 28.699219 12.179688 L 27.898438 12.179688 L 27.898438 10.574219 L 28.699219 10.574219 C 29.144531 10.574219 29.503906 10.9375 29.503906 11.378906 Z M 29.503906 17.804688 C 29.503906 18.25 29.144531 18.609375 28.699219 18.609375 L 27.898438 18.609375 L 27.898438 17.003906 L 28.699219 17.003906 C 29.144531 17.003906 29.503906 17.363281 29.503906 17.804688 Z M 7.808594 13.789062 L 8.613281 13.789062 L 8.613281 15.394531 L 7.808594 15.394531 C 7.367188 15.394531 7.003906 15.035156 7.003906 14.59375 C 7.003906 14.148438 7.367188 13.789062 7.808594 13.789062 Z M 7.808594 10.574219 L 8.613281 10.574219 L 8.613281 12.179688 L 7.808594 12.179688 C 7.367188 12.179688 7.003906 11.820312 7.003906 11.378906 C 7.003906 10.9375 7.367188 10.574219 7.808594 10.574219 Z M 7.808594 17.003906 L 8.613281 17.003906 L 8.613281 18.609375 L 7.808594 18.609375 C 7.367188 18.609375 7.003906 18.25 7.003906 17.804688 C 7.003906 17.363281 7.367188 17.003906 7.808594 17.003906 Z M 7.808594 17.003906 " fill-opacity="1" fill-rule="nonzero"/></g></svg>